<svg width="69" height="69" viewBox="0 0 69 69" fill="none" xmlns="http://www.w3.org/2000/svg">
<path d="M0.508789 0.934448H68.2261V68.6517H0.508789V0.934448Z" fill="#ADADB9"/>
<path d="M30.4861 49.4268C30.4861 49.7425 30.376 50.0061 30.1556 50.2166C33.7903 50.2885 40.953 50.3892 40.5263 50.2166C40.0995 50.0441 40.1147 49.6177 40.1756 49.426V43.8691C40.1756 42.166 39.7349 40.9192 38.8536 40.1293C39.8198 40.024 40.6885 39.8655 41.4601 39.6546C42.2312 39.4437 43.0284 39.1015 43.8507 38.6273C44.6728 38.1535 45.3595 37.5697 45.911 36.8758C46.4618 36.1819 46.9108 35.2607 47.2582 34.1102C47.6051 32.96 47.7795 31.639 47.7795 30.1466C47.7795 28.022 47.1094 26.2133 45.7702 24.7207C46.3977 23.1231 46.3298 21.3322 45.5672 19.348C45.0922 19.1897 44.4052 19.2864 43.5066 19.6374C42.6086 19.9886 41.8283 20.375 41.1675 20.7966L40.2011 21.4284C38.6241 20.972 36.9963 20.7438 35.3181 20.7438C33.6398 20.7438 32.0124 20.972 30.4354 21.4284C30.1641 21.2356 29.804 20.9979 29.3546 20.7173C28.9051 20.4367 28.1975 20.0982 27.2311 19.7031C26.2649 19.3082 25.5358 19.1895 25.0441 19.3477C24.2981 21.3318 24.2388 23.1228 24.8662 24.7204C23.5269 26.213 22.8571 28.0213 22.8571 30.1463C22.8571 31.6387 23.0309 32.9555 23.3783 34.0971C23.7256 35.2381 24.1708 36.1602 24.7132 36.8626C25.2556 37.5647 25.9379 38.1531 26.7605 38.627C27.5826 39.1016 28.3795 39.4438 29.1507 39.6547C29.9223 39.8653 30.791 40.0237 31.7572 40.1289C31.0793 40.7609 30.6639 41.6651 30.5113 42.842C30.1551 43.0175 29.7736 43.1495 29.367 43.2373C28.96 43.3246 28.4769 43.3686 27.9175 43.3686C27.3581 43.3686 26.8028 43.1801 26.252 42.8025C25.7007 42.4249 25.2307 41.8762 24.8406 41.1561C24.5184 40.5945 24.1074 40.138 23.6073 39.7869C23.107 39.4355 22.6876 39.2253 22.3485 39.1549L21.8401 39.0762C21.4839 39.0762 21.2384 39.1147 21.1026 39.1939C20.9667 39.2732 20.9245 39.3742 20.9755 39.4973C21.0263 39.6204 21.1025 39.7433 21.2042 39.8661C21.306 39.9888 21.4161 40.0947 21.5347 40.1824L21.7128 40.3144C22.0857 40.49 22.4544 40.8234 22.819 41.3151C23.1835 41.8065 23.4504 42.2547 23.6199 42.6582L23.8742 43.2643C24.0946 43.9311 24.4676 44.4712 24.9929 44.8839C25.5185 45.2965 26.0863 45.5599 26.6968 45.6735C27.307 45.788 27.8964 45.8496 28.4641 45.8579C29.0321 45.8663 29.5026 45.8364 29.8755 45.7656L30.4605 45.6608C30.4605 46.3275 30.4645 47.1089 30.4733 48.0045C30.4817 48.9002 30.4861 49.3741 30.4861 49.4268Z" fill="white"/>
</svg>
