<svg width="19" height="22" viewBox="0 0 19 22" fill="none" xmlns="http://www.w3.org/2000/svg">
<path d="M7.16245 20.7567C7.16245 20.9666 7.08924 21.1419 6.94264 21.2819C9.35972 21.3297 14.1229 21.3967 13.8392 21.2819C13.5554 21.1672 13.5655 20.8836 13.606 20.7562V17.0608C13.606 15.9282 13.3129 15.0991 12.7269 14.5739C13.3694 14.5038 13.9471 14.3984 14.4602 14.2582C14.973 14.1179 15.5031 13.8903 16.0499 13.575C16.5966 13.2599 17.0533 12.8717 17.42 12.4103C17.7863 11.9488 18.0849 11.3362 18.3159 10.5712C18.5466 9.80622 18.6626 8.92778 18.6626 7.93531C18.6626 6.52249 18.217 5.31966 17.3264 4.32706C17.7437 3.26465 17.6985 2.07372 17.1914 0.754205C16.8756 0.648994 16.4186 0.713286 15.8211 0.946712C15.2239 1.18026 14.705 1.43718 14.2656 1.71754L13.623 2.1377C12.5742 1.83422 11.4918 1.68245 10.3757 1.68245C9.25967 1.68245 8.17744 1.83422 7.12875 2.1377C6.94833 2.00949 6.70885 1.8514 6.40997 1.66484C6.11109 1.47822 5.64055 1.25314 4.99788 0.990391C4.35534 0.727764 3.87047 0.648811 3.54351 0.754021C3.04739 2.07347 3.008 3.26447 3.42522 4.32687C2.53456 5.31947 2.08913 6.522 2.08913 7.93513C2.08913 8.9276 2.2047 9.80327 2.43576 10.5624C2.6667 11.3212 2.96274 11.9344 3.32346 12.4015C3.68413 12.8684 4.1379 13.2597 4.6849 13.5748C5.23161 13.8904 5.76156 14.118 6.27439 14.2582C6.78751 14.3983 7.3652 14.5036 8.00774 14.5736C7.55693 14.9938 7.28068 15.5951 7.17921 16.3778C6.94234 16.4945 6.68865 16.5822 6.41826 16.6407C6.14757 16.6987 5.8263 16.7279 5.45433 16.7279C5.08235 16.7279 4.71304 16.6026 4.34675 16.3515C3.98017 16.1004 3.6676 15.7355 3.40816 15.2567C3.19392 14.8832 2.92057 14.5796 2.58804 14.3461C2.25534 14.1125 1.97642 13.9727 1.75092 13.9259L1.41283 13.8735C1.17596 13.8735 1.01272 13.8991 0.922388 13.9518C0.83206 14.0045 0.803984 14.0717 0.837864 14.1536C0.871685 14.2354 0.922328 14.3171 0.989971 14.3988C1.05767 14.4804 1.13088 14.5508 1.20978 14.6091L1.32819 14.6969C1.57619 14.8137 1.82135 15.0354 2.06378 15.3624C2.30622 15.6892 2.48368 15.9872 2.5964 16.2556L2.7655 16.6586C2.9121 17.102 3.1601 17.4612 3.50945 17.7356C3.85898 18.01 4.23658 18.1852 4.64255 18.2607C5.04835 18.3369 5.44029 18.3779 5.81783 18.3833C6.19555 18.389 6.50841 18.369 6.75641 18.322L7.14539 18.2523C7.14539 18.6957 7.14812 19.2153 7.15392 19.8109C7.15955 20.4065 7.16245 20.7216 7.16245 20.7567Z" fill="white"/>
</svg>
