<svg width="22" height="20" viewBox="0 0 22 20" fill="none" xmlns="http://www.w3.org/2000/svg">
<path d="M21.0357 12.1547V19.4399H16.601V12.6426C16.601 10.935 15.9596 9.76971 14.3544 9.76971C13.129 9.76971 12.3998 10.5551 12.079 11.3148C11.962 11.5863 11.9319 11.9644 11.9319 12.3445V19.4399H7.49568C7.49568 19.4399 7.55543 7.92747 7.49568 6.7347H11.9314V8.53561C11.9224 8.54908 11.9108 8.56361 11.9023 8.57666H11.9314V8.53561C12.5208 7.67114 13.5733 6.43622 15.9291 6.43622C18.8477 6.43617 21.0357 8.25211 21.0357 12.1547ZM2.85523 0.610153C1.33762 0.610153 0.344971 1.55819 0.344971 2.80489C0.344971 4.02442 1.3089 5.00122 2.79635 5.00122H2.82599C4.37299 5.00122 5.33509 4.0246 5.33509 2.80489C5.30594 1.55819 4.37299 0.610153 2.85523 0.610153ZM0.608442 19.4399H5.04295V6.7347H0.608442V19.4399Z" fill="white"/>
</svg>
