<svg width="68" height="69" viewBox="0 0 68 69" fill="none" xmlns="http://www.w3.org/2000/svg">
<path d="M0.226074 0.934448H67.9434V68.6517H0.226074V0.934448Z" fill="#ADADB9"/>
<path d="M49.6417 37.9956V48.9508H42.973V38.7293C42.973 36.1616 42.0084 34.4092 39.5946 34.4092C37.7519 34.4092 36.6553 35.5902 36.1729 36.7326C35.997 37.141 35.9517 37.7094 35.9517 38.2811V48.9508H29.2807C29.2807 48.9508 29.3706 31.639 29.2807 29.8453H35.951V32.5534C35.9375 32.5737 35.9199 32.5955 35.9072 32.6152H35.951V32.5534C36.8373 31.2535 38.4199 29.3965 41.9625 29.3965C46.3515 29.3964 49.6417 32.1271 49.6417 37.9956ZM22.3027 20.6355C20.0205 20.6355 18.5278 22.0611 18.5278 23.9358C18.5278 25.7697 19.9773 27.2386 22.2141 27.2386H22.2587C24.585 27.2386 26.0318 25.77 26.0318 23.9358C25.9879 22.0611 24.585 20.6355 22.3027 20.6355ZM18.924 48.9508H25.5924V29.8453H18.924V48.9508Z" fill="white"/>
</svg>
